<svg xmlns="http://www.w3.org/2000/svg" width="18.625" height="21.721" viewBox="0 0 18.625 21.721">
  <path id="Icon_awesome-android" data-name="Icon awesome-android" d="M5.044,10.615v5.617A1.329,1.329,0,0,1,3.71,17.575a1.448,1.448,0,0,1-1.46-1.344V10.615A1.447,1.447,0,0,1,3.71,9.281,1.339,1.339,0,0,1,5.044,10.615Zm.524,7.615A1.432,1.432,0,0,0,7,19.666h.965l.015,2.963a1.339,1.339,0,0,0,2.677,0V19.666h1.8v2.963a1.346,1.346,0,0,0,2.692,0V19.666h.98a1.43,1.43,0,0,0,1.426-1.436v-8.7H5.568v8.7ZM17.6,9.058H5.514A5.451,5.451,0,0,1,8.6,4.237L7.673,2.525A.187.187,0,1,1,8,2.341l.941,1.727a6.553,6.553,0,0,1,5.253,0l.936-1.722a.187.187,0,1,1,.325.184l-.926,1.707A5.464,5.464,0,0,1,17.6,9.058ZM9.317,6.366a.509.509,0,0,0-.509-.509.509.509,0,0,0,0,1.019A.509.509,0,0,0,9.317,6.366Zm5.5,0a.5.5,0,1,0-.495.509A.506.506,0,0,0,14.817,6.366Zm4.6,2.915a1.33,1.33,0,0,0-1.334,1.334v5.617a1.338,1.338,0,0,0,1.334,1.344,1.444,1.444,0,0,0,1.46-1.344V10.615A1.436,1.436,0,0,0,19.415,9.281Z" transform="translate(-2.25 -2.245)" fill="#748e9c"/>
</svg>
