<svg xmlns="http://www.w3.org/2000/svg" width="18.256" height="21.725" viewBox="0 0 18.256 21.725">
  <path id="Icon_awesome-apple" data-name="Icon awesome-apple" d="M15.545,13.731A4.528,4.528,0,0,1,17.97,9.618a5.211,5.211,0,0,0-4.108-2.163c-1.722-.136-3.6,1-4.292,1-.728,0-2.4-.955-3.706-.955C3.157,7.546.281,9.661.281,13.963A12.089,12.089,0,0,0,.98,17.9c.621,1.78,2.862,6.145,5.2,6.072,1.222-.029,2.086-.868,3.676-.868,1.542,0,2.343.868,3.706.868,2.357-.034,4.385-4,4.976-5.786a4.808,4.808,0,0,1-2.993-4.457ZM12.8,5.766A4.568,4.568,0,0,0,13.964,2.25,5.143,5.143,0,0,0,10.67,3.943,4.64,4.64,0,0,0,9.429,7.43,4.073,4.073,0,0,0,12.8,5.766Z" transform="translate(-0.281 -2.25)" fill="#748e9c"/>
</svg>
