<svg xmlns="http://www.w3.org/2000/svg" width="18.625" height="18.625" viewBox="0 0 18.625 18.625">
  <path id="Icon_ionic-logo-facebook" data-name="Icon ionic-logo-facebook" d="M22.1,4.5H5.528A1.029,1.029,0,0,0,4.5,5.528V22.1a1.029,1.029,0,0,0,1.028,1.028h8.284V15.753H11.586V13.036h2.226V11.028A3.538,3.538,0,0,1,17.63,7.313c1.028,0,2.134.078,2.391.112V9.937H18.309c-1.169,0-1.392.553-1.392,1.368v1.732H19.7l-.364,2.716h-2.42v7.372H22.1A1.029,1.029,0,0,0,23.125,22.1V5.528A1.029,1.029,0,0,0,22.1,4.5Z" transform="translate(-4.5 -4.5)" fill="#748e9c"/>
</svg>
