<svg xmlns="http://www.w3.org/2000/svg" width="19.783" height="19.783" viewBox="0 0 19.783 19.783">
  <path id="Icon_awesome-fax" data-name="Icon awesome-fax" d="M2.473,4.946H1.236A1.237,1.237,0,0,0,0,6.182V18.547a1.237,1.237,0,0,0,1.236,1.236H2.473a1.237,1.237,0,0,0,1.236-1.236V6.182A1.237,1.237,0,0,0,2.473,4.946ZM18.547,6.182v-3.2a1.237,1.237,0,0,0-.362-.874L16.436.362A1.236,1.236,0,0,0,15.561,0H6.182A1.237,1.237,0,0,0,4.946,1.236v17.31a1.237,1.237,0,0,0,1.236,1.236H18.547a1.237,1.237,0,0,0,1.236-1.236V7.419A1.237,1.237,0,0,0,18.547,6.182Zm-7.419,10.51a.618.618,0,0,1-.618.618H9.273a.618.618,0,0,1-.618-.618V15.456a.618.618,0,0,1,.618-.618H10.51a.618.618,0,0,1,.618.618Zm0-4.946a.618.618,0,0,1-.618.618H9.273a.618.618,0,0,1-.618-.618V10.51a.618.618,0,0,1,.618-.618H10.51a.618.618,0,0,1,.618.618Zm4.946,4.946a.618.618,0,0,1-.618.618H14.219a.618.618,0,0,1-.618-.618V15.456a.618.618,0,0,1,.618-.618h1.236a.618.618,0,0,1,.618.618Zm0-4.946a.618.618,0,0,1-.618.618H14.219a.618.618,0,0,1-.618-.618V10.51a.618.618,0,0,1,.618-.618h1.236a.618.618,0,0,1,.618.618Zm.618-4.328H6.8V1.855h8.037V3.091a.618.618,0,0,0,.618.618h1.236Z" fill="#748e9c"/>
</svg>
