<svg xmlns="http://www.w3.org/2000/svg" width="24.833" height="24.833" viewBox="0 0 24.833 24.833">
  <path id="Icon_simple-instagram" data-name="Icon simple-instagram" d="M12.417,0C9.043,0,8.622.016,7.3.074A9.156,9.156,0,0,0,4.284.652a6.08,6.08,0,0,0-2.2,1.432,6.058,6.058,0,0,0-1.432,2.2A9.129,9.129,0,0,0,.074,7.3C.012,8.622,0,9.043,0,12.417s.016,3.794.074,5.119a9.161,9.161,0,0,0,.577,3.014,6.089,6.089,0,0,0,1.432,2.2,6.072,6.072,0,0,0,2.2,1.432,9.167,9.167,0,0,0,3.014.577c1.324.062,1.746.074,5.119.074s3.794-.016,5.119-.074a9.188,9.188,0,0,0,3.014-.577,6.346,6.346,0,0,0,3.632-3.632,9.161,9.161,0,0,0,.577-3.014c.062-1.324.074-1.746.074-5.119s-.016-3.794-.074-5.119a9.183,9.183,0,0,0-.577-3.014,6.094,6.094,0,0,0-1.432-2.2,6.05,6.05,0,0,0-2.2-1.432A9.135,9.135,0,0,0,17.535.074C16.211.012,15.79,0,12.417,0Zm0,2.235c3.314,0,3.709.017,5.018.073a6.841,6.841,0,0,1,2.3.429A4.086,4.086,0,0,1,22.1,5.094a6.855,6.855,0,0,1,.427,2.3c.059,1.31.072,1.7.072,5.018s-.016,3.709-.077,5.018a6.988,6.988,0,0,1-.436,2.3,3.942,3.942,0,0,1-.93,1.43,3.874,3.874,0,0,1-1.428.927,6.906,6.906,0,0,1-2.313.427c-1.318.059-1.706.072-5.028.072s-3.71-.016-5.028-.077a7.041,7.041,0,0,1-2.314-.436,3.845,3.845,0,0,1-1.427-.93,3.77,3.77,0,0,1-.931-1.428,7.047,7.047,0,0,1-.435-2.313c-.047-1.3-.063-1.706-.063-5.012s.017-3.71.063-5.03A7.039,7.039,0,0,1,2.686,5.06a3.681,3.681,0,0,1,.931-1.429A3.673,3.673,0,0,1,5.044,2.7a6.872,6.872,0,0,1,2.3-.436C8.662,2.219,9.05,2.2,12.37,2.2l.047.031Zm0,3.806a6.376,6.376,0,1,0,6.376,6.376A6.375,6.375,0,0,0,12.417,6.041Zm0,10.515a4.139,4.139,0,1,1,4.139-4.139A4.138,4.138,0,0,1,12.417,16.555ZM20.535,5.789A1.49,1.49,0,1,1,19.045,4.3,1.491,1.491,0,0,1,20.535,5.789Z" fill="#748e9c"/>
</svg>
