<svg xmlns="http://www.w3.org/2000/svg" width="20.169" height="20.169" viewBox="0 0 20.169 20.169">
  <path id="Icon_material-language" data-name="Icon material-language" d="M13.074,3A10.084,10.084,0,1,0,23.169,13.084,10.08,10.08,0,0,0,13.074,3Zm6.989,6.051H17.088A15.781,15.781,0,0,0,15.7,5.461,8.1,8.1,0,0,1,20.063,9.051ZM13.084,5.057a14.206,14.206,0,0,1,1.926,3.993H11.158A14.206,14.206,0,0,1,13.084,5.057ZM5.279,15.1a7.888,7.888,0,0,1,0-4.034H8.688a16.655,16.655,0,0,0-.141,2.017A16.655,16.655,0,0,0,8.688,15.1Zm.827,2.017H9.081a15.781,15.781,0,0,0,1.392,3.59A8.054,8.054,0,0,1,6.106,17.118ZM9.081,9.051H6.106a8.054,8.054,0,0,1,4.367-3.59A15.781,15.781,0,0,0,9.081,9.051Zm4,12.061a14.206,14.206,0,0,1-1.926-3.993h3.852A14.206,14.206,0,0,1,13.084,21.112Zm2.36-6.01h-4.72a14.837,14.837,0,0,1-.161-2.017,14.708,14.708,0,0,1,.161-2.017h4.72a14.708,14.708,0,0,1,.161,2.017A14.837,14.837,0,0,1,15.444,15.1Zm.252,5.607a15.781,15.781,0,0,0,1.392-3.59h2.975a8.1,8.1,0,0,1-4.367,3.59ZM17.481,15.1a16.655,16.655,0,0,0,.141-2.017,16.655,16.655,0,0,0-.141-2.017H20.89a7.888,7.888,0,0,1,0,4.034Z" transform="translate(-3 -3)" fill="#748e9c"/>
</svg>
