<svg xmlns="http://www.w3.org/2000/svg" width="18.62" height="18.62" viewBox="0 0 18.62 18.62">
  <path id="Icon_ionic-logo-linkedin" data-name="Icon ionic-logo-linkedin" d="M21.631,4.5H6.091A1.519,1.519,0,0,0,4.5,5.95V21.524a1.638,1.638,0,0,0,1.591,1.6H21.626a1.555,1.555,0,0,0,1.494-1.6V5.95A1.428,1.428,0,0,0,21.631,4.5ZM10.272,20.021H7.6V11.727h2.668ZM9.03,10.466H9.011A1.369,1.369,0,0,1,7.6,9.035,1.378,1.378,0,0,1,9.045,7.6a1.374,1.374,0,0,1,1.426,1.431A1.377,1.377,0,0,1,9.03,10.466Zm10.991,9.555H17.353V15.486c0-1.086-.388-1.829-1.353-1.829a1.46,1.46,0,0,0-1.368.985,1.8,1.8,0,0,0-.092.655v4.724H11.872V11.727H14.54v1.154a2.7,2.7,0,0,1,2.406-1.348c1.751,0,3.075,1.154,3.075,3.643v4.845Z" transform="translate(-4.5 -4.5)" fill="#748e9c"/>
</svg>
