<svg xmlns="http://www.w3.org/2000/svg" width="25.233" height="17.033" viewBox="0 0 25.233 17.033">
  <path id="Icon_zocial-email" data-name="Icon zocial-email" d="M.072,19.592V5.577q0-.024.073-.462l8.249,7.056L.169,20.079a2.062,2.062,0,0,1-.1-.487ZM1.167,4.141a1.049,1.049,0,0,1,.414-.073H23.8a1.378,1.378,0,0,1,.438.073l-8.273,7.081-1.095.876L12.7,13.874,10.535,12.1,9.44,11.222Zm.024,16.887,8.3-7.957,3.212,2.6,3.212-2.6,8.3,7.957a1.168,1.168,0,0,1-.414.073H1.581a1.1,1.1,0,0,1-.389-.073Zm15.816-8.857,8.224-7.056a1.452,1.452,0,0,1,.073.462V19.592a1.865,1.865,0,0,1-.073.487Z" transform="translate(-0.072 -4.068)" fill="#748e9c"/>
</svg>
