<svg xmlns="http://www.w3.org/2000/svg" width="19.783" height="19.783" viewBox="0 0 19.783 19.783">
  <path id="Icon_awesome-phone-alt" data-name="Icon awesome-phone-alt" d="M19.219,13.98l-4.328-1.855a.927.927,0,0,0-1.082.267l-1.917,2.342A14.322,14.322,0,0,1,5.046,7.887L7.388,5.97a.925.925,0,0,0,.267-1.082L5.8.561A.934.934,0,0,0,4.737.024L.719.951a.927.927,0,0,0-.719.9A17.927,17.927,0,0,0,17.929,19.784a.927.927,0,0,0,.9-.719l.927-4.019A.939.939,0,0,0,19.219,13.98Z" transform="translate(0 0)" fill="#748e9c"/>
</svg>
