<svg xmlns="http://www.w3.org/2000/svg" width="21.729" height="21.729" viewBox="0 0 21.729 21.729">
  <path id="Icon_awesome-pinterest-square" data-name="Icon awesome-pinterest-square" d="M21.729,4.578V21.651A2.329,2.329,0,0,1,19.4,23.979H7.489A12.428,12.428,0,0,0,8.818,21.1c.146-.558.742-2.833.742-2.833a3.184,3.184,0,0,0,2.731,1.368c3.594,0,6.179-3.3,6.179-7.406,0-3.934-3.211-6.878-7.343-6.878-5.141,0-7.867,3.449-7.867,7.207,0,1.746.931,3.919,2.415,4.613.228.107.344.058.4-.16.039-.165.243-.975.33-1.348a.351.351,0,0,0-.082-.34,4.643,4.643,0,0,1-.888-2.716,5.155,5.155,0,0,1,5.379-5.17,4.7,4.7,0,0,1,4.976,4.845c0,3.221-1.625,5.452-3.744,5.452a1.732,1.732,0,0,1-1.765-2.154,24.068,24.068,0,0,0,.985-3.967C11.262,9.045,7.6,9.4,7.6,12.828a4.352,4.352,0,0,0,.354,1.77C6.431,21.04,6.2,21.122,6.519,23.94l.107.039h-4.3A2.329,2.329,0,0,1,0,21.651V4.578A2.329,2.329,0,0,1,2.328,2.25H19.4A2.329,2.329,0,0,1,21.729,4.578Z" transform="translate(0 -2.25)" fill="#748e9c"/>
</svg>
