<svg xmlns="http://www.w3.org/2000/svg" width="21.724" height="21.724" viewBox="0 0 21.724 21.724">
  <path id="Icon_awesome-skype" data-name="Icon awesome-skype" d="M20.6,15.239a10.556,10.556,0,0,0,.228-2.124,9.953,9.953,0,0,0-9.958-9.958,10.252,10.252,0,0,0-2.124.228A5.425,5.425,0,0,0,1.13,10.99,10.556,10.556,0,0,0,.9,13.115a9.953,9.953,0,0,0,9.958,9.958,10.252,10.252,0,0,0,2.124-.228,5.426,5.426,0,0,0,8.74-4.3,5.35,5.35,0,0,0-1.125-3.3ZM11.16,19.677c-3.182,0-5.845-1.416-5.845-3.153A1.363,1.363,0,0,1,6.747,15.04c1.513,0,1.654,2.178,4.273,2.178,1.247,0,2.052-.553,2.052-1.276,0-.907-.776-1.048-2.037-1.358C8,13.837,5.321,13.517,5.321,10.355c0-2.871,2.842-3.934,5.292-3.934,2.672,0,5.374,1.062,5.374,2.687a1.461,1.461,0,0,1-1.47,1.542c-1.373,0-1.416-1.625-3.638-1.625-1.247,0-2.037.34-2.037,1.091,0,.96,1.009,1.057,3.352,1.6,2.008.451,4.4,1.3,4.4,3.764,0,2.866-2.769,4.2-5.432,4.2Z" transform="translate(0 -2.25)" fill="#748e9c"/>
</svg>
