<svg xmlns="http://www.w3.org/2000/svg" width="24.833" height="23.346" viewBox="0 0 24.833 23.346">
  <path id="Icon_awesome-snapchat-ghost" data-name="Icon awesome-snapchat-ghost" d="M24.777,19.38c-.253.59-1.321,1.023-3.267,1.325a9.1,9.1,0,0,0-.316,1.162.562.562,0,0,1-.588.43h-.014c-.456,0-.931-.21-1.884-.21a3.839,3.839,0,0,0-2.728,1,5.463,5.463,0,0,1-3.59,1.329,5.571,5.571,0,0,1-3.534-1.329,3.834,3.834,0,0,0-2.728-1,18.319,18.319,0,0,0-1.884.229.576.576,0,0,1-.6-.438,8.984,8.984,0,0,0-.316-1.17c-1-.156-3.265-.55-3.322-1.559a.515.515,0,0,1,.431-.537c3.375-.556,4.9-4.021,4.958-4.168l.011-.025a1.1,1.1,0,0,0,.119-.91c-.245-.577-1.3-.784-1.749-.96-1.15-.454-1.31-.976-1.242-1.334a1.248,1.248,0,0,1,1.6-.75,2.776,2.776,0,0,0,1.142.305.99.99,0,0,0,.483-.105c-.1-1.743-.344-4.234.276-5.625a6.608,6.608,0,0,1,6.134-3.958l.49,0A6.563,6.563,0,0,1,18.8,5.038c.62,1.39.376,3.87.276,5.627a.95.95,0,0,0,.417.1,2.9,2.9,0,0,0,1.07-.3,1.313,1.313,0,0,1,.993,0h0a1.007,1.007,0,0,1,.756.867c.009.473-.413.881-1.255,1.213-.1.04-.228.08-.361.122-.475.151-1.193.379-1.388.838a1.1,1.1,0,0,0,.119.909l.012.025c.063.147,1.582,3.611,4.958,4.168A.529.529,0,0,1,24.777,19.38Z" transform="translate(0 -1.078)" fill="#748e9c"/>
</svg>
