<svg xmlns="http://www.w3.org/2000/svg" width="24.057" height="24.057" viewBox="0 0 24.057 24.057">
  <path id="Icon_awesome-telegram" data-name="Icon awesome-telegram" d="M12.029.563A12.029,12.029,0,1,0,24.057,12.591,12.027,12.027,0,0,0,12.029.563ZM17.936,8.8l-1.974,9.3c-.146.66-.538.82-1.086.509L11.869,16.4l-1.45,1.4a.759.759,0,0,1-.606.3l.213-3.06L15.6,10c.243-.213-.053-.335-.373-.121L8.338,14.211l-2.968-.926c-.645-.2-.66-.645.136-.955L17.1,7.857c.538-.194,1.009.131.834.946Z" transform="translate(0 -0.563)" fill="#748e9c"/>
</svg>
