<svg xmlns="http://www.w3.org/2000/svg" width="21.729" height="21.729" viewBox="0 0 21.729 21.729">
  <path id="Icon_awesome-tumblr-square" data-name="Icon awesome-tumblr-square" d="M19.4,2.25H2.328A2.329,2.329,0,0,0,0,4.578V21.651a2.329,2.329,0,0,0,2.328,2.328H19.4a2.329,2.329,0,0,0,2.328-2.328V4.578A2.329,2.329,0,0,0,19.4,2.25ZM15.409,19.915a4.329,4.329,0,0,1-2.954.96A4.064,4.064,0,0,1,8,16.612V12.246H6.558a.3.3,0,0,1-.3-.3V9.884A.511.511,0,0,1,6.6,9.4a3.859,3.859,0,0,0,2.556-3.55c.024-.335.2-.495.485-.495h2.149a.3.3,0,0,1,.3.3V9.147h2.517a.3.3,0,0,1,.3.3v2.478a.3.3,0,0,1-.3.3H12.082v4.04c0,1.038.718,1.625,2.061,1.086a.65.65,0,0,1,.388-.068.318.318,0,0,1,.223.238l.669,1.95c.049.155.1.325-.015.441Z" transform="translate(0 -2.25)" fill="#748e9c"/>
</svg>
