<svg xmlns="http://www.w3.org/2000/svg" width="24.833" height="20.169" viewBox="0 0 24.833 20.169">
  <path id="Icon_awesome-twitter" data-name="Icon awesome-twitter" d="M22.281,8.407c.016.221.016.441.016.662A14.382,14.382,0,0,1,7.816,23.55,14.383,14.383,0,0,1,0,21.265a10.529,10.529,0,0,0,1.229.063,10.193,10.193,0,0,0,6.319-2.174,5.1,5.1,0,0,1-4.759-3.53,6.418,6.418,0,0,0,.961.079,5.383,5.383,0,0,0,1.339-.173,5.09,5.09,0,0,1-4.081-5v-.063a5.126,5.126,0,0,0,2.3.646A5.1,5.1,0,0,1,1.733,4.31,14.467,14.467,0,0,0,12.227,9.636,5.745,5.745,0,0,1,12.1,8.47,5.094,5.094,0,0,1,20.91,4.988a10.02,10.02,0,0,0,3.23-1.229,5.076,5.076,0,0,1-2.238,2.8,10.2,10.2,0,0,0,2.931-.788,10.941,10.941,0,0,1-2.553,2.631Z" transform="translate(0 -3.381)" fill="#748e9c"/>
</svg>
