<svg xmlns="http://www.w3.org/2000/svg" width="20.169" height="20.169" viewBox="0 0 20.169 20.169">
  <path id="Icon_ionic-logo-whatsapp" data-name="Icon ionic-logo-whatsapp" d="M12.517,2.25a9.863,9.863,0,0,0-9.9,9.825,9.723,9.723,0,0,0,1.421,5.073L2.25,22.419l5.482-1.741a9.918,9.918,0,0,0,14.687-8.6A9.863,9.863,0,0,0,12.517,2.25Zm4.924,13.556a2.557,2.557,0,0,1-1.751,1.129c-.464.025-.478.36-3.009-.74a10.331,10.331,0,0,1-4.174-3.947,4.856,4.856,0,0,1-.934-2.632,2.806,2.806,0,0,1,.964-2.059.97.97,0,0,1,.686-.289c.2,0,.328-.006.476,0s.369-.031.561.479.65,1.763.709,1.89a.459.459,0,0,1,0,.44,1.72,1.72,0,0,1-.268.409c-.132.142-.278.317-.4.425s-.269.251-.131.507a7.577,7.577,0,0,0,1.341,1.789,6.908,6.908,0,0,0,1.985,1.32c.248.135.4.12.55-.042s.659-.709.837-.953.345-.2.574-.1,1.448.745,1.7.88.414.2.473.311A2.079,2.079,0,0,1,17.441,15.806Z" transform="translate(-2.25 -2.25)" fill="#748e9c"/>
</svg>
