<svg xmlns="http://www.w3.org/2000/svg" width="21.432" height="25.678" viewBox="0 0 21.432 25.678">
  <path id="Icon_zocial-youtube" data-name="Icon zocial-youtube" d="M2.681,17.5q0-1.34.149-4.023a3.162,3.162,0,0,1,3.1-3.054q2.483-.125,7.475-.124t7.476.124a3.163,3.163,0,0,1,3.1,3.054q.122,2.235.124,4.023t-.124,4.024a3.162,3.162,0,0,1-3.1,3.054q-2.484.123-7.476.124t-7.475-.124a3.162,3.162,0,0,1-3.1-3.055Q2.68,18.845,2.681,17.5ZM4.345,14H5.86v8.1H7.325V14H8.84V12.637H4.345ZM5.959-.972h1.49L8.393,2.8h.1L9.386-.972h1.49L9.733,2.7q-.572,1.812-.571,1.862V8.489H7.7V4.74a4.13,4.13,0,0,0-.137-.633c-.057-.19-.133-.41-.223-.658s-.161-.456-.211-.621ZM8.84,21.005q0,1.192.894,1.192a2.007,2.007,0,0,0,1.515-.869v.77H12.54V15.12H11.248v5.314q-.521.521-.77.522c-.231,0-.348-.158-.348-.472V15.121H8.84v5.885ZM10.8,6.726V3.1a1.61,1.61,0,0,1,.546-1.3,2.085,2.085,0,0,1,1.391-.459,1.82,1.82,0,0,1,1.328.5,1.754,1.754,0,0,1,.509,1.316v3.6a1.922,1.922,0,0,1-.5,1.4,1.855,1.855,0,0,1-1.391.509,1.814,1.814,0,0,1-1.378-.534A1.953,1.953,0,0,1,10.8,6.726Zm1.341.174q0,.57.546.571.57,0,.571-.621v-3.8a.47.47,0,0,0-.175-.372.591.591,0,0,0-.4-.149.578.578,0,0,0-.385.137.447.447,0,0,0-.161.36V6.9Zm1.664,15.2h1.316v-.522a1.529,1.529,0,0,0,1.242.622q1.166,0,1.167-1.54V16.784q0-1.762-1.267-1.762a1.465,1.465,0,0,0-1.142.67V12.637H13.806V22.1Zm1.316-1.316V16.411a.789.789,0,0,1,.546-.274q.546,0,.546.7v3.675q0,.6-.472.6A.8.8,0,0,1,15.122,20.782ZM15.693,7.4V1.511h1.291V6.85q0,.471.348.472.322,0,.77-.521V1.511h1.291V8.489H18.1V7.72a2.008,2.008,0,0,1-1.516.869Q15.694,8.589,15.693,7.4Zm2.831,12.739A2.458,2.458,0,0,0,19,21.688a1.681,1.681,0,0,0,1.415.608q1.937,0,1.936-2.16v-.521H21.009c0,.033,0,.145.012.335a1.975,1.975,0,0,1-.012.41c-.016.082-.038.195-.062.336a.437.437,0,0,1-.162.3.6.6,0,0,1-.347.087q-.572,0-.571-.993V18.771h2.483V16.982a2.242,2.242,0,0,0-.459-1.49,1.73,1.73,0,0,0-1.4-.546,1.861,1.861,0,0,0-1.428.57,2.063,2.063,0,0,0-.534,1.465v3.154Zm1.341-2.458v-.745q0-.769.571-.77t.571.77v.745Z" transform="translate(-2.681 0.972)" fill="#748e9c"/>
</svg>
