<svg xmlns="http://www.w3.org/2000/svg" width="43.886" height="42.034" viewBox="0 0 43.886 42.034">
  <path id="Icon_awesome-star" data-name="Icon awesome-star" d="M20.562,1.425l-5.228,10.6-11.7,1.705A2.563,2.563,0,0,0,2.218,18.1l8.463,8.247L8.68,38a2.561,2.561,0,0,0,3.715,2.7L22.86,35.2l10.465,5.5A2.563,2.563,0,0,0,37.04,38l-2-11.65L43.5,18.1a2.563,2.563,0,0,0-1.417-4.372l-11.7-1.705-5.228-10.6A2.564,2.564,0,0,0,20.562,1.425Z" transform="translate(-0.917 0.501)" fill="#ffcf5e" stroke="#f8fbff" stroke-width="1"/>
</svg>
