<svg xmlns="http://www.w3.org/2000/svg" width="26.033" height="26.033" viewBox="0 0 26.033 26.033">
  <g id="stamp" transform="translate(0.517 0.517)">
    <path id="Path_1346" data-name="Path 1346" d="M269.653,262.036a7.614,7.614,0,1,1-7.613-7.614A7.614,7.614,0,0,1,269.653,262.036Zm0,0" transform="translate(-249.539 -249.536)" fill="#0086bc" stroke="#f8fbff" stroke-width="1"/>
    <path id="Path_1347" data-name="Path 1347" d="M226.08,212.676a1.837,1.837,0,0,1-.3-1.1l.138-2.5a.505.505,0,0,0-.277-.479l-2.225-1.124a1.837,1.837,0,0,1-.806-.806l-1.124-2.225a.506.506,0,0,0-.479-.277l-2.5.138a1.831,1.831,0,0,1-1.1-.3l-2.084-1.374a.506.506,0,0,0-.557,0L212.676,204a1.831,1.831,0,0,1-1.1.3l-2.5-.138a.5.5,0,0,0-.479.277l-1.124,2.225a1.837,1.837,0,0,1-.806.806l-2.225,1.124a.506.506,0,0,0-.277.479l.138,2.5a1.837,1.837,0,0,1-.3,1.1l-1.374,2.084a.506.506,0,0,0,0,.557L204,217.4a1.838,1.838,0,0,1,.3,1.1l-.138,2.5a.506.506,0,0,0,.277.479l2.225,1.124a1.813,1.813,0,0,1,.806.806l1.124,2.226a.508.508,0,0,0,.479.277l2.5-.138.1,0a1.839,1.839,0,0,1,1.007.3l2.084,1.374a.5.5,0,0,0,.557,0l2.084-1.374a1.839,1.839,0,0,1,1.1-.3l2.5.138a.5.5,0,0,0,.479-.277l1.124-2.225a1.81,1.81,0,0,1,.806-.806l2.225-1.124a.505.505,0,0,0,.277-.479l-.138-2.5a1.838,1.838,0,0,1,.3-1.1l1.374-2.084a.505.505,0,0,0,0-.557Zm-11.042,11.294a8.932,8.932,0,1,1,8.932-8.932A8.933,8.933,0,0,1,215.038,223.971Zm0,0" transform="translate(-202.538 -202.539)" fill="#0086bc" stroke="#f8fbff" stroke-width="1"/>
  </g>
</svg>
