<svg xmlns="http://www.w3.org/2000/svg" width="22.038" height="22.038" viewBox="0 0 22.038 22.038">
  <path id="Icon_awesome-fax" data-name="Icon awesome-fax" d="M2.755,5.509H1.377A1.378,1.378,0,0,0,0,6.887V20.66a1.378,1.378,0,0,0,1.377,1.377H2.755A1.378,1.378,0,0,0,4.132,20.66V6.887A1.378,1.378,0,0,0,2.755,5.509ZM20.66,6.887V3.325a1.378,1.378,0,0,0-.4-.974L18.309.4a1.377,1.377,0,0,0-.974-.4H6.887A1.378,1.378,0,0,0,5.509,1.377V20.66a1.378,1.378,0,0,0,1.377,1.377H20.66a1.378,1.378,0,0,0,1.377-1.377V8.264A1.378,1.378,0,0,0,20.66,6.887ZM12.4,18.594a.688.688,0,0,1-.689.689H10.33a.688.688,0,0,1-.689-.689V17.217a.688.688,0,0,1,.689-.689h1.377a.688.688,0,0,1,.689.689Zm0-5.509a.688.688,0,0,1-.689.689H10.33a.688.688,0,0,1-.689-.689V11.708a.688.688,0,0,1,.689-.689h1.377a.688.688,0,0,1,.689.689Zm5.509,5.509a.688.688,0,0,1-.689.689H15.84a.688.688,0,0,1-.689-.689V17.217a.688.688,0,0,1,.689-.689h1.377a.688.688,0,0,1,.689.689Zm0-5.509a.688.688,0,0,1-.689.689H15.84a.688.688,0,0,1-.689-.689V11.708a.688.688,0,0,1,.689-.689h1.377a.688.688,0,0,1,.689.689Zm.689-4.821H7.575v-6.2h8.953V3.443a.688.688,0,0,0,.689.689h1.377Z"/>
</svg>
