<svg xmlns="http://www.w3.org/2000/svg" width="21.797" height="21.797" viewBox="0 0 21.797 21.797">
  <path id="Icon_awesome-phone" data-name="Icon awesome-phone" d="M21,1.047,16.577.025a1.028,1.028,0,0,0-1.171.592L13.363,5.385a1.019,1.019,0,0,0,.294,1.192l2.58,2.112a15.777,15.777,0,0,1-7.544,7.544l-2.112-2.58a1.021,1.021,0,0,0-1.192-.294L.621,15.4a1.034,1.034,0,0,0-.6,1.175L1.047,21a1.021,1.021,0,0,0,1,.792A19.751,19.751,0,0,0,21.8,2.043,1.02,1.02,0,0,0,21,1.047Z" transform="translate(0.001 0.001)"/>
</svg>
