<svg xmlns="http://www.w3.org/2000/svg" width="22.942" height="22.942" viewBox="0 0 22.942 22.942">
  <path id="Icon_material-language" data-name="Icon material-language" d="M14.46,3A11.471,11.471,0,1,0,25.942,14.471,11.465,11.465,0,0,0,14.46,3Zm7.949,6.883H19.025A17.951,17.951,0,0,0,17.442,5.8,9.211,9.211,0,0,1,22.409,9.883ZM14.471,5.34a16.159,16.159,0,0,1,2.191,4.543H12.28A16.159,16.159,0,0,1,14.471,5.34ZM5.592,16.765a8.973,8.973,0,0,1,0-4.588H9.47a18.945,18.945,0,0,0-.161,2.294,18.945,18.945,0,0,0,.161,2.294Zm.941,2.294H9.917A17.951,17.951,0,0,0,11.5,23.143,9.162,9.162,0,0,1,6.533,19.059ZM9.917,9.883H6.533A9.162,9.162,0,0,1,11.5,5.8,17.951,17.951,0,0,0,9.917,9.883ZM14.471,23.6a16.159,16.159,0,0,1-2.191-4.543h4.382A16.159,16.159,0,0,1,14.471,23.6Zm2.684-6.837H11.787a16.877,16.877,0,0,1-.184-2.294,16.731,16.731,0,0,1,.184-2.294h5.368a16.731,16.731,0,0,1,.184,2.294A16.877,16.877,0,0,1,17.155,16.765Zm.287,6.378a17.951,17.951,0,0,0,1.583-4.084h3.384a9.211,9.211,0,0,1-4.967,4.084Zm2.03-6.378a18.944,18.944,0,0,0,.161-2.294,18.944,18.944,0,0,0-.161-2.294H23.35a8.973,8.973,0,0,1,0,4.588Z" transform="translate(-3 -3)"/>
</svg>
