<svg xmlns="http://www.w3.org/2000/svg" width="22.038" height="22.038" viewBox="0 0 22.038 22.038">
  <path id="Icon_ionic-logo-whatsapp" data-name="Icon ionic-logo-whatsapp" d="M13.469,2.25A10.777,10.777,0,0,0,2.65,12.985,10.624,10.624,0,0,0,4.2,18.528L2.25,24.288l5.99-1.9a10.837,10.837,0,0,0,16.048-9.4A10.777,10.777,0,0,0,13.469,2.25Zm5.38,14.812A2.794,2.794,0,0,1,16.935,18.3c-.507.027-.522.393-3.288-.808a11.288,11.288,0,0,1-4.561-4.313A5.306,5.306,0,0,1,8.065,10.3,3.066,3.066,0,0,1,9.118,8.05a1.059,1.059,0,0,1,.749-.315c.218,0,.359-.006.52,0s.4-.034.612.523.71,1.926.775,2.065a.5.5,0,0,1,.005.481,1.879,1.879,0,0,1-.293.447c-.144.155-.3.346-.432.465s-.294.274-.143.554a8.279,8.279,0,0,0,1.465,1.955,7.548,7.548,0,0,0,2.169,1.442c.271.148.433.131.6-.046s.72-.775.915-1.041.377-.215.627-.115,1.582.814,1.853.962.452.223.517.339A2.272,2.272,0,0,1,18.848,17.062Z" transform="translate(-2.25 -2.25)"/>
</svg>
